<svg width="36" height="36" viewBox="0 0 36 36" fill="none" xmlns="http://www.w3.org/2000/svg">
<path d="M33.84 0H2.16C1.58713 0 1.03773 0.270917 0.632649 0.753154C0.227571 1.23539 0 1.88944 0 2.57143V33.4286C0 34.1106 0.227571 34.7646 0.632649 35.2468C1.03773 35.7291 1.58713 36 2.16 36H4.572C4.70763 35.9967 4.83986 35.9489 4.95418 35.862C5.0685 35.775 5.16047 35.6523 5.22 35.5071C5.97838 33.5999 7.17608 31.9882 8.67375 30.8596C10.1714 29.731 11.9075 29.1318 13.68 29.1318C15.4525 29.1318 17.1886 29.731 18.6863 30.8596C20.1839 31.9882 21.3816 33.5999 22.14 35.5071C22.1995 35.6523 22.2915 35.775 22.4058 35.862C22.5201 35.9489 22.6524 35.9967 22.788 36H33.84C34.4129 36 34.9623 35.7291 35.3674 35.2468C35.7724 34.7646 36 34.1106 36 33.4286V2.57143C36 1.88944 35.7724 1.23539 35.3674 0.753154C34.9623 0.270917 34.4129 0 33.84 0ZM34.56 33.4286C34.56 33.6559 34.4841 33.8739 34.3491 34.0347C34.2141 34.1954 34.031 34.2857 33.84 34.2857H23.238C21.9141 31.3214 19.6745 29.0855 16.992 28.05C18.2119 27.1864 19.1599 25.8698 19.6904 24.3026C20.2209 22.7354 20.3044 21.0042 19.9283 19.3749C19.5521 17.7457 18.737 16.3085 17.6082 15.2842C16.4794 14.2599 15.0993 13.7052 13.68 13.7052C12.2607 13.7052 10.8806 14.2599 9.7518 15.2842C8.623 16.3085 7.8079 17.7457 7.43173 19.3749C7.05556 21.0042 7.13913 22.7354 7.66959 24.3026C8.20005 25.8698 9.14807 27.1864 10.368 28.05C7.68546 29.0855 5.44587 31.3214 4.122 34.2857H2.16C1.97048 34.2803 1.78999 34.1882 1.65594 34.0286C1.52189 33.8691 1.44457 33.6542 1.44 33.4286V2.57143C1.44 2.3441 1.51586 2.12608 1.65088 1.96534C1.78591 1.80459 1.96904 1.71429 2.16 1.71429H33.84C34.031 1.71429 34.2141 1.80459 34.3491 1.96534C34.4841 2.12608 34.56 2.3441 34.56 2.57143V33.4286ZM13.68 27.4286C12.6832 27.4286 11.7087 27.0767 10.8799 26.4174C10.0511 25.7581 9.40511 24.821 9.02365 23.7247C8.64218 22.6283 8.54237 21.4219 8.73684 20.258C8.93131 19.0941 9.41133 18.025 10.1162 17.1859C10.821 16.3468 11.7191 15.7754 12.6967 15.5439C13.6744 15.3123 14.6878 15.4312 15.6087 15.8853C16.5297 16.3394 17.3168 17.1085 17.8706 18.0951C18.4244 19.0818 18.72 20.2419 18.72 21.4286C18.7153 23.0181 18.1827 24.541 17.2386 25.665C16.2944 26.789 15.0152 27.4229 13.68 27.4286ZM30.24 7.71429V28.2857C30.24 28.513 30.1641 28.7311 30.0291 28.8918C29.8941 29.0526 29.711 29.1429 29.52 29.1429H26.64C26.449 29.1429 26.2659 29.0526 26.1309 28.8918C25.9959 28.7311 25.92 28.513 25.92 28.2857C25.92 28.0584 25.9959 27.8404 26.1309 27.6796C26.2659 27.5189 26.449 27.4286 26.64 27.4286H28.8V8.57143H7.2V11.1429C7.2 11.3702 7.12414 11.5882 6.98912 11.7489C6.85409 11.9097 6.67096 12 6.48 12C6.28904 12 6.10591 11.9097 5.97088 11.7489C5.83586 11.5882 5.76 11.3702 5.76 11.1429V7.71429C5.76 7.48696 5.83586 7.26894 5.97088 7.10819C6.10591 6.94745 6.28904 6.85714 6.48 6.85714H29.52C29.711 6.85714 29.8941 6.94745 30.0291 7.10819C30.1641 7.26894 30.24 7.48696 30.24 7.71429Z" fill="black"/>
</svg>
